Simulation
nRows=49
nColumns=15
endheader
time  TH_x TH_y TH_z SC_y  SC_z  SC_x  AC_y  AC_z  AC_x  GH_y  GH_z  GH_yy  EL_x  PS_y
0.0  0.000000  0.000000  0.000000  -31.379406814759907  -0.3622009237620081  3.7174551876574773  43.90357951952965  6.546948643484704  -5.004839022388895  -2.6374949501547946  0.03782767543321184  21.33401906283638  22.378482210489132  0.000000
0.03  0.000000  0.000000  0.000000  -31.157231868510774  0.17000353118936248  3.300723188292466  43.0128561270505  6.858684927759804  -4.678583609161694  -2.2040321116392763  0.17633847264600935  21.76413134686599  22.419809946115205  0.000000
0.06  0.000000  0.000000  0.000000  -30.768050124767267  0.20869382693519678  2.8008270148397534  41.769333761664996  7.156239709123238  -4.367975025640632  -1.7821242149730283  0.39037534614878383  22.184934947298654  22.53710963676601  0.000000
0.09  0.000000  0.000000  0.000000  -30.586567965040686  0.03367183554429861  2.4110631200499273  41.16465143414675  7.331816898440326  -4.151509004370077  -1.4198976579215898  0.6825918656911107  22.549817343911403  22.7574397279212  0.000000
0.12  0.000000  0.000000  0.000000  -30.661565812077242  -0.10988487660773097  2.270313519374251  41.11218478808027  7.242485439138299  -4.055757084764596  -1.175545441189914  1.0942964386332168  22.786281325469936  22.98663356958213  0.000000
0.15  0.000000  0.000000  0.000000  -30.9399728996142  -0.12402761560643441  2.261762356009797  41.25045814921577  6.906365608286175  -3.9541422074089088  -1.0243792888531575  1.7883904366376906  22.904262195002374  23.166758030481496  0.000000
0.18  0.000000  0.000000  0.000000  -31.231998260838306  -0.09470358332029748  2.24927915174407  41.34659451375909  6.502907253780454  -3.8361484733376345  -1.0000796755880208  2.8209046578628176  22.86704255359315  23.31838049827881  0.000000
0.21  0.000000  0.000000  0.000000  -31.443216319858756  -0.041114758386900783  2.241534029738725  41.40390065436197  6.102460704082787  -3.7424542773751415  -1.092407990571671  4.17554601016816  22.682273706335106  23.48797747205494  0.000000
0.24  0.000000  0.000000  0.000000  -31.584114164739095  0.06253502121082882  2.262382440006216  41.447380982592634  5.719494424012314  -3.6468617753990324  -1.2961763259660246  5.8224526129442395  22.342610593644345  23.72202578400459  0.000000
0.27  0.000000  0.000000  0.000000  -31.731918593592013  0.19157488035720124  2.350087915286999  41.57924031283123  5.362470494282691  -3.5084638808309037  -1.6415516467484381  7.744337972727816  21.796417699525986  23.97148027197264  0.000000
0.3  0.000000  0.000000  0.000000  -31.94166792454796  0.3115443110671086  2.526028094133589  41.87324279900751  5.049844116085275  -3.313460725514146  -2.156131570440575  9.92632620299434  20.998742392821683  24.217743206809203  0.000000
0.32999999999999996  0.000000  0.000000  0.000000  -32.18989547996296  0.41108442671493417  2.7817787492478607  42.2939091677472  4.809596729930997  -3.092022670992855  -2.8224276205205423  12.344657580906023  19.97108771548224  24.49455585440593  0.000000
0.36  0.000000  0.000000  0.000000  -32.40054090272132  0.5137876378190176  3.0644189985685815  42.716007113314525  4.688825750575283  -2.8874842958530813  -3.544679827566152  14.951804278918202  18.796548862548576  24.863638421658415  0.000000
0.39  0.000000  0.000000  0.000000  -32.53890571731983  0.6598292094328796  3.333389634316939  43.044754777038285  4.72236802942931  -2.7125679782994485  -4.16054400122236  17.66635513996509  17.539278685059372  25.293321506322016  0.000000
0.42  0.000000  0.000000  0.000000  -32.634029290267094  0.8595249603780949  3.589525008179636  43.26862864814843  4.927879457751679  -2.5622783433301652  -4.523513639790368  20.39199036373959  16.16739574188823  25.661364342348637  0.000000
0.44999999999999996  0.000000  0.000000  0.000000  -32.7302799839322  1.098069105699922  3.847109641790673  43.41791713230715  5.304191996446879  -2.4253917942755336  -4.560125445007212  23.057244509404608  14.623483264820445  25.84359789685948  0.000000
0.48  0.000000  0.000000  0.000000  -32.835815001511044  1.3620236187831245  4.111649916355492  43.50449379340989  5.827801228510678  -2.300391220477044  -4.285482943742953  25.634308729161617  12.9274932223183  25.798844073097126  0.000000
0.51  0.000000  0.000000  0.000000  -32.93149124509933  1.6432028597413986  4.382056928095617  43.51807897735278  6.46193862002764  -2.198047839754755  -3.775570305425118  28.131123138175113  11.199901679071232  25.562697368820633  0.000000
0.54  0.000000  0.000000  0.000000  -32.99857184756315  1.9362831754079848  4.65539791323837  43.445913945223765  7.170967768384809  -2.1273320541013088  -3.1222827835118943  30.561759041360244  9.585690889660412  25.2000576353567  0.000000
0.57  0.000000  0.000000  0.000000  -33.03463846740216  2.2348732900674686  4.931726278327993  43.29498069376967  7.928189743959918  -2.086336658304905  -2.395363524202223  32.92532361913858  8.167500723825158  24.76112395369735  0.000000
0.6  0.000000  0.000000  0.000000  -33.0478696876215  2.5323972953554676  5.209880922160917  43.082791287705774  8.718252041220229  -2.063140007884691  -1.6312768883449746  35.20572009971585  6.944938542576062  24.276467137104206  0.000000
0.63  0.000000  0.000000  0.000000  -33.05070457980877  2.826936948540969  5.489816450373289  42.828556130244834  9.529695683886152  -2.0405446520488226  -0.8464731482953837  37.381702183685725  5.874262190270544  23.766622159679564  0.000000
0.6599999999999999  0.000000  0.000000  0.000000  -33.056629042745115  3.122286113858816  5.778193100176552  42.54941821257201  10.348879629691131  -2.00234416720866  -0.0559750781661406  39.433035938565354  4.9174242045266565  23.254079505365368  0.000000
0.69  0.000000  0.000000  0.000000  -33.07899876690071  3.4266367073083046  6.079825194349486  42.26183044031238  11.169181166511414  -1.9315418729626443  0.7154210121166683  41.33896801561555  4.064947164312205  22.766354474830244  0.000000
0.72  0.000000  0.000000  0.000000  -33.132121958443  3.741062416586764  6.39748035336306  41.97993714192784  11.996927481405947  -1.8138059133602964  1.435399834916206  43.08196615614023  3.3272445022257244  22.330917867678192  0.000000
0.75  0.000000  0.000000  0.000000  -33.2319574477746  4.0615076464233635  6.734096928208893  41.71602596649359  12.839530612990256  -1.638033971222441  2.078487999426047  44.651749434770714  2.710618619016756  21.964256417451328  0.000000
0.78  0.000000  0.000000  0.000000  -33.390620248434686  4.384392285740145  7.089927413010546  41.47553796762092  13.695717825907243  -1.3972121223683316  2.6394242021663423  46.049944225898514  2.2042560477302833  21.665613553871847  0.000000
0.8099999999999999  0.000000  0.000000  0.000000  -33.61318118579339  4.704547335594732  7.460745975649138  41.25634868562735  14.558833828367394  -1.0898297511961728  3.1301576272245506  47.29012675687353  1.7835577422451967  21.421710183980988  0.000000
0.84  0.000000  0.000000  0.000000  -33.8971265329493  5.020585317954221  7.841077641261693  41.05226925923649  15.417469284842898  -0.7171538668854786  3.5647752075797614  48.389765014658245  1.4263281218364319  21.215015883473704  0.000000
0.87  0.000000  0.000000  0.000000  -34.232715639205516  5.334453687627874  8.231698544649612  40.860053843925705  16.25720015486558  -0.2844290603170318  3.9438611519185045  49.36296194018096  1.1292270004829108  21.030875292545158  0.000000
0.8999999999999999  0.000000  0.000000  0.000000  -34.610334411660595  5.648641804058048  8.640949523847931  40.68801435002865  17.061307881690215  0.20310533376983034  4.250942936931637  50.22032205866826  0.907976777111235  20.86058908879355  0.000000
0.9299999999999999  0.000000  0.000000  0.000000  -35.02250421100081  5.9665934984733555  9.078551585504508  40.55264812777897  17.814017272030597  0.7441702396636212  4.462226039045889  50.96866283100165  0.7838659090381664  20.700349244624597  0.000000
0.96  0.000000  0.000000  0.000000  -35.46203509153873  6.290674041651678  9.549732146181583  40.46999911010632  18.50366802071109  1.3378219464443497  4.560762223037733  51.614104799369855  0.7688674288433793  20.548411570298033  0.000000
0.99  0.000000  0.000000  0.000000  -35.9208599572961  6.619132897035749  10.05160427037159  40.44789240847662  19.125930669087026  1.9803704198506498  4.546694594535815  52.164751700485624  0.8579185346958649  20.403551534740423  0.000000
1.02  0.000000  0.000000  0.000000  -36.38912623020619  6.948183224939971  10.573535808309305  40.48383808376692  19.682009586025764  2.664549885311629  4.436029568273799  52.631517589878015  1.0323914803961274  20.264779390991645  0.000000
1.05  0.000000  0.000000  0.000000  -36.857761572433766  7.270642511030928  11.101931188722048  40.57134085290644  20.176315644411186  3.3781095209993937  4.253734785309593  53.0302844298317  1.269537149544024  20.13200811576402  0.000000
1.08  0.000000  0.000000  0.000000  -37.3176386132963  7.578878740130958  11.621250223514368  40.70349405096052  20.612664316899156  4.106814379487228  4.024432212020846  53.38360611620081  1.5492823605134116  20.00442941511115  0.000000
1.1099999999999999  0.000000  0.000000  0.000000  -37.75662006278116  7.8681392110456585  12.120965474673799  40.86981847408657  20.984402523982464  4.825986830666291  3.7722752460373856  53.71792585758231  1.8562567797263796  19.882063223656946  0.000000
1.14  0.000000  0.000000  0.000000  -38.1592369075097  8.133199207717285  12.59049522889446  41.054669177032075  21.28258303636656  5.498114331485301  3.521083153507145  54.055978470652725  2.1785520841041426  19.769164494384327  0.000000
1.17  0.000000  0.000000  0.000000  -38.51384326958423  8.373874537404232  13.017480853040523  41.23793502624764  21.508750083175443  6.099828292027813  3.287308904086993  54.400745708270236  2.504387424674034  19.671193422606912  0.000000
1.2  0.000000  0.000000  0.000000  -38.820363101502764  8.592464321059294  13.404042976138424  41.40513414000222  21.67437786780769  6.625389834376333  3.077871777604806  54.73270573939222  2.8249488570758574  19.592071142742164  0.000000
1.23  0.000000  0.000000  0.000000  -39.088233013120394  8.789096264525046  13.764036645028956  41.55060923716579  21.79596060099404  7.077560801397514  2.8934874382515994  55.02239145751408  3.1357016914334266  19.535408931400827  0.000000
1.26  0.000000  0.000000  0.000000  -39.32801775394359  8.963159405494542  14.110071380325579  41.67382131639988  21.885258684947235  7.461431054251281  2.732194459938426  55.24730021997722  3.435471397939875  19.501553460792785  0.000000
1.29  0.000000  0.000000  0.000000  -39.54303424910019  9.113473491987499  14.440020162558815  41.775142252365804  21.94775471113588  7.778591295302922  2.592935033450211  55.40288974696904  3.7232903242822717  19.48397582706185  0.000000
1.3199999999999998  0.000000  0.000000  0.000000  -39.727031790859336  9.238592066094279  14.737493413417026  41.853323397142894  21.983726605162126  8.024503195304721  2.4765901349070942  55.49869616022452  3.9958044343964656  19.470789839764716  0.000000
1.3499999999999999  0.000000  0.000000  0.000000  -39.86757035647356  9.334252834222193  14.980292483707817  41.9055219744105  21.99290721859721  8.187861467687737  2.3858607002467043  55.545538246079985  4.243782967545396  19.452628719084544  0.000000
1.38  0.000000  0.000000  0.000000  -39.95027543862647  9.3942615624645  15.142234953208561  41.927922238256464  21.97813391250362  8.258835728726538  2.320039064328628  55.54634201277066  4.450229909825056  19.430701241322012  0.000000
1.41  0.000000  0.000000  0.000000  -39.96224802987847  9.412809875518823  15.196214726460255  41.91835760862146  21.944506629485158  8.232480402199645  2.272006440875235  55.493769174516714  4.589940580495366  19.41835272821289  0.000000
1.44  0.000000  0.000000  0.000000  -39.89568063310768  9.385979706652229  15.117649041770552  41.87769882570317  21.896342023499134  8.111648060097536  2.2297510320006273  55.3735167429708  4.636794262043851  19.435939493160806  0.000000
